<svg xmlns="http://www.w3.org/2000/svg" viewBox="0 0 512 512" fill="none">
  <defs>
    <linearGradient id="bg" x1="0" y1="0" x2="1" y2="1">
      <stop offset="0%" stop-color="#1B4332"/>
      <stop offset="100%" stop-color="#2D6A4F"/>
    </linearGradient>
    <linearGradient id="accent" x1="0" y1="0" x2="1" y2="1">
      <stop offset="0%" stop-color="#52B788"/>
      <stop offset="100%" stop-color="#95D5B2"/>
    </linearGradient>
  </defs>
  <circle cx="256" cy="256" r="240" fill="url(#bg)"/>
  <path d="M160 200 L352 200 L352 240 L400 200 L352 160 L352 200" fill="none" stroke="url(#accent)" stroke-width="20" stroke-linecap="round" stroke-linejoin="round"/>
  <path d="M352 312 L160 312 L160 272 L112 312 L160 352 L160 312" fill="none" stroke="url(#accent)" stroke-width="20" stroke-linecap="round" stroke-linejoin="round"/>
  <text x="256" y="270" font-family="system-ui, sans-serif" font-size="120" font-weight="700" fill="url(#accent)" text-anchor="middle" dominant-baseline="central">$</text>
  <rect x="200" y="120" width="112" height="80" rx="8" fill="none" stroke="url(#accent)" stroke-width="8"/>
  <line x1="220" y1="140" x2="292" y2="140" stroke="url(#accent)" stroke-width="6" stroke-linecap="round"/>
  <line x1="220" y1="160" x2="280" y2="160" stroke="url(#accent)" stroke-width="6" stroke-linecap="round"/>
  <line x1="220" y1="180" x2="260" y2="180" stroke="url(#accent)" stroke-width="6" stroke-linecap="round"/>
  <circle cx="256" cy="380" r="30" fill="none" stroke="url(#accent)" stroke-width="8"/>
  <path d="M240 380 L250 390 L272 368" fill="none" stroke="url(#accent)" stroke-width="8" stroke-linecap="round" stroke-linejoin="round"/>
</svg>